<?xml version="1.0" encoding="utf-8"?>
<svg version="1.1" width="400" height="400" viewBox="50.555 35.654 295.667 328.059" xmlns="http://www.w3.org/2000/svg">
  <desc>Created with Fabric.js 4.6.0</desc>
  <g transform="matrix(1 0 0 1 85.01 428.9)" id="Tk6xKBZGklvHQJ2SCr066">
    <path style="stroke: rgb(0,0,0); stroke-width: 1; stroke-dasharray: none; stroke-linecap: butt; stroke-dashoffset: 0; stroke-linejoin: miter; stroke-miterlimit: 4; fill: rgb(255,255,255); fill-opacity: 0; fill-rule: nonzero; opacity: 1;" vector-effect="non-scaling-stroke" transform=" translate(0, 0)" d="M 0 0" stroke-linecap="round"/>
  </g>
  <g transform="matrix(1 0 0 1 45.85 446.09)" id="SSNg0ZkcZlNiq-zYsOrIq">
    <path style="stroke: rgb(0,0,0); stroke-width: 1; stroke-dasharray: none; stroke-linecap: round; stroke-dashoffset: 0; stroke-linejoin: round; stroke-miterlimit: 10; fill: none; fill-rule: nonzero; opacity: 1;" vector-effect="non-scaling-stroke" transform=" translate(-45.85, -446.09)" d="M 45.849746268656595 446.08955223880594 L 45.85174626865659 446.08955223880594" stroke-linecap="round"/>
  </g>
  <g transform="matrix(0.69 0 0 0.69 200 360.25)" id="fHGaCJ2akuB0svScBSQky">
    <path style="stroke: rgb(0,0,0); stroke-width: 5; stroke-dasharray: none; stroke-linecap: butt; stroke-dashoffset: 0; stroke-linejoin: miter; stroke-miterlimit: 4; fill: rgb(255,255,255); fill-opacity: 0; fill-rule: nonzero; opacity: 1;" vector-effect="non-scaling-stroke" transform=" translate(0, 0)" d="M -209.67164 0 L 209.67164 0" stroke-linecap="round"/>
  </g>
  <g transform="matrix(1 0 0 1 200 200)" id="qqlhLc16AlhVI0n1ovX_Z">
    <path style="stroke: rgb(0,0,0); stroke-width: 5; stroke-dasharray: none; stroke-linecap: butt; stroke-dashoffset: 0; stroke-linejoin: miter; stroke-miterlimit: 4; fill: rgb(255,255,255); fill-opacity: 0; fill-rule: nonzero; opacity: 1;" vector-effect="non-scaling-stroke" transform=" translate(0, 0)" d="M -88.83582 160.25224 L -88.83582 -160.25224 L 29.611940000000004 -160.25224 L 88.83582000000001 -160.25224 L 88.83582000000001 -91.47612" stroke-linecap="round"/>
  </g>
  <g transform="matrix(2.14 0 0 2.14 151.1 309.81)" id="fB8LtHklCOriJ1RPnDaRd">
    <path style="stroke: rgb(0,0,0); stroke-width: 5; stroke-dasharray: none; stroke-linecap: butt; stroke-dashoffset: 0; stroke-linejoin: miter; stroke-miterlimit: 4; fill: rgb(255,255,255); fill-opacity: 0; fill-rule: nonzero; opacity: 1;" vector-effect="non-scaling-stroke" transform=" translate(0, 0)" d="M 0 0 C 64.40252 81.50943 -64.40252 -81.50943 0 0 z" stroke-linecap="round"/>
  </g>
</svg>